<?xml version="1.0" encoding="UTF-8" standalone="no"?>


<svg xmlns:dc="http://purl.org/dc/elements/1.1/" xmlns:cc="http://creativecommons.org/ns#" xmlns:rdf="http://www.w3.org/1999/02/22-rdf-syntax-ns#" xmlns:svg="http://www.w3.org/2000/svg" xmlns="http://www.w3.org/2000/svg" xmlns:sodipodi="http://sodipodi.sourceforge.net/DTD/sodipodi-0.dtd" xmlns:inkscape="http://www.inkscape.org/namespaces/inkscape" id="svg3016" version="1.1" inkscape:version="0.48.5 r10040" width="935.41626" height="672.31659" sodipodi:docname="ToyotaLogoRedVer.png">
  <metadata id="metadata3022">
    <rdf:RDF>
      <cc:Work rdf:about="">
        <dc:format>image/svg+xml</dc:format>
        <dc:type rdf:resource="http://purl.org/dc/dcmitype/StillImage" />
        <dc:title></dc:title>
      </cc:Work>
    </rdf:RDF>
  </metadata>
  <defs id="defs3020">
	
		
		
		
		
		
		
		
	</defs>
  <sodipodi:namedview pagecolor="#ffffff" bordercolor="#666666" borderopacity="1" objecttolerance="10" gridtolerance="10" guidetolerance="10" inkscape:pageopacity="0" inkscape:pageshadow="2" inkscape:window-width="1366" inkscape:window-height="706" id="namedview3018" showgrid="false" fit-margin-top="0" fit-margin-left="0" fit-margin-right="0" fit-margin-bottom="0" inkscape:zoom="0.48177201" inkscape:cx="1000.0833" inkscape:cy="363.3613" inkscape:window-x="-8" inkscape:window-y="-8" inkscape:window-maximized="1" inkscape:current-layer="svg3016" />
  <path style="fill:#e60000;fill-opacity:1;fill-rule:evenodd" inkscape:connector-curvature="0" clip-rule="evenodd" d="m 444.34414,423.57705 c -36.19611,-22.49899 -62.86171,-100.1433 -62.86171,-192.3951 0,-3.38516 0.0273,-6.72145 0.0984,-10.05776 l 0,0 0.0439,0.0488 0,0 C 280.95014,205.47149 208.21056,162.4552 206.34768,111.58819 l 0,0 -0.29544,0.58635 0,0 c -24.63315,30.3796 -38.6936,65.50441 -38.6936,102.93122 0,110.13049 121.81989,200.36803 276.33444,208.34907 l 0,0 0.65103,0.12227 0,0 0,0 z M 120.81419,223.14117 C 120.81419,99.912531 275.3424,0 465.97645,0 656.605,0 811.13869,99.912531 811.13869,223.14117 c 0,123.22863 -154.53642,223.14389 -345.16224,223.14389 -190.63405,0 -345.16226,-99.91797 -345.16226,-223.14389 l 0,0 0,0 0,0 z M 465.97645,32.203829 c 36.80065,0 68.10291,55.397792 79.69871,132.694611 l 0,0 0.0439,-0.11672 0,0 c 71.59343,-11.05948 121.72141,-36.57171 121.72141,-66.259089 0,-39.845571 -90.20848,-72.109136 -201.46388,-72.109136 -111.26359,0 -201.46386,32.266295 -201.46386,72.109136 0,29.687379 50.11978,55.199609 121.72139,66.259089 l 0,0 0.0439,0.11672 0,0 C 397.87367,87.604321 429.18417,32.203829 465.97658,32.203829 l 0,0 0,0 0,0 z m 22.27788,391.248351 c 154.51453,-7.97834 276.35083,-98.21862 276.35083,-208.34907 0,-37.42411 -14.07687,-72.54892 -38.70729,-102.93124 l 0,0 -0.3009,-0.58636 0,0 c -1.86288,50.86703 -74.58333,93.88333 -175.26874,109.58484 l 0,0 0.0439,-0.0488 0,0 c 0.0684,3.33631 0.10398,6.6726 0.10398,10.05777 0,92.25179 -26.68477,169.8961 -62.85897,192.39508 l 0,0 0.63737,-0.12204 0,0 0,0 z M 465.97645,170.64264 c 16.48683,0 32.5141,-0.69767 47.8493,-2.03872 l 0,0 -0.0273,0.0244 0,0 C 506.16642,119.0779 487.6307,84.107831 465.97102,84.107831 c -21.65965,0 -40.19265,34.970069 -47.83563,84.520489 l 0,0 -0.0273,-0.0244 0,0 c 15.3352,1.34105 31.36794,2.03872 47.85478,2.03872 l 0,0 0,0 0,0 z m 0,183.49376 c 27.70511,0 50.3058,-57.21657 51.51212,-128.98097 l 0,0 0.1478,0.0515 0,0 c -16.70021,1.53378 -33.97487,2.33459 -51.65712,2.33459 -17.69866,0 -34.95692,-0.80081 -51.65712,-2.33459 l 0,0 0.15584,-0.0515 0,0 c 1.18722,71.76167 23.78242,128.98097 51.49848,128.98097 l 0,0 0,0 0,0 z" id="path3032" />
  <g id="g3065" transform="matrix(1.3176826,0,0,1.3176826,-1860.9052,14.947236)" style="fill:#e60000;fill-opacity:1">
    <path id="path3034" d="m 1766.663,436.05894 c 0,-34.696 28.133,-62.824 62.821,-62.824 34.706,0 62.835,28.127 62.835,62.824 0,34.7 -28.129,62.824 -62.835,62.824 -34.688,0 -62.821,-28.124 -62.821,-62.824 l 0,0 0,0 0,0 z m 62.821,39.787 c 19.379,0 35.087,-17.815 35.087,-39.787 0,-21.971 -15.708,-39.788 -35.087,-39.788 -19.365,0 -35.07,17.817 -35.07,39.788 0,21.971 15.705,39.787 35.07,39.787 l 0,0 0,0 0,0 z" clip-rule="evenodd" inkscape:connector-curvature="0" style="fill:#e60000;fill-opacity:1;fill-rule:evenodd" />
    <polygon transform="translate(1122.814,353.85994)" id="polygon3036" points="840.788,142.171 814.319,142.171 814.319,45.551 814.406,45.551 777.388,45.551 777.388,23.707 877.713,23.707 877.713,45.551 840.875,45.551 840.788,45.551 840.788,45.551 840.788,45.551 " clip-rule="evenodd" style="fill:#e60000;fill-opacity:1;fill-rule:evenodd" />
    <path id="path3038" d="m 2032.55,469.37694 -0.026,0.025 -10.154,26.629 h -30.912 l 48.873,-118.465 h 16.479 16.463 l 48.878,118.465 h -30.918 l -10.155,-26.629 -0.025,-0.025 h -24.242 -24.261 l 0,0 0,0 z m 24.259,-19.994 h 16.653 l -0.01,0.005 -16.53,-43.359 h -0.232 l -16.54,43.359 -0.01,-0.005 h 16.665 l 0,0 0,0 z" clip-rule="evenodd" inkscape:connector-curvature="0" style="fill:#e60000;fill-opacity:1;fill-rule:evenodd" />
    <polygon transform="translate(1122.814,353.85994)" id="polygon3040" points="352.844,142.171 326.373,142.171 326.373,45.551 326.463,45.551 289.442,45.551 289.442,23.707 389.771,23.707 389.771,45.551 352.936,45.551 352.844,45.551 352.844,45.551 352.844,45.551 " clip-rule="evenodd" style="fill:#e60000;fill-opacity:1;fill-rule:evenodd" />
    <path id="path3042" d="m 1519.355,436.05894 c 0,-34.696 28.132,-62.824 62.832,-62.824 34.698,0 62.827,28.127 62.827,62.824 0,34.7 -28.129,62.824 -62.827,62.824 -34.7,0 -62.832,-28.124 -62.832,-62.824 l 0,0 0,0 0,0 z m 62.832,39.787 c 19.369,0 35.078,-17.815 35.078,-39.787 0,-21.971 -15.708,-39.788 -35.078,-39.788 -19.372,0 -35.081,17.817 -35.081,39.788 0,21.971 15.709,39.787 35.081,39.787 l 0,0 0,0 0,0 z" clip-rule="evenodd" inkscape:connector-curvature="0" style="fill:#e60000;fill-opacity:1;fill-rule:evenodd" />
    <polygon transform="translate(1122.814,353.85994)" id="polygon3044" points="583.024,142.171 583.024,142.171 596.446,142.171 596.446,97.742 596.446,97.188 642.625,23.707 611.718,23.707 583.024,73.5 554.334,23.707 523.417,23.707 569.601,97.188 569.601,97.742 569.601,142.171 583.024,142.171 " clip-rule="evenodd" style="fill:#e60000;fill-opacity:1;fill-rule:evenodd" />
  </g>
</svg>
